<?xml version="1.0" standalone="no"?>
<!DOCTYPE svg PUBLIC "-//W3C//DTD SVG 20010904//EN"
 "http://www.w3.org/TR/2001/REC-SVG-20010904/DTD/svg10.dtd">
<svg version="1.0" xmlns="http://www.w3.org/2000/svg"
 width="640.000000pt" height="640.000000pt" viewBox="0 0 640.000000 640.000000"
 preserveAspectRatio="xMidYMid meet">
<metadata>
Created by potrace 1.14, written by Peter Selinger 2001-2017
</metadata>
<g transform="translate(0.000000,640.000000) scale(0.100000,-0.100000)"
fill="#000000" stroke="none">
<path d="M1249 5206 c-2 -2 -44 -7 -94 -10 -96 -6 -102 -7 -180 -29 -94 -27
-251 -110 -263 -139 -2 -4 -7 -8 -12 -8 -13 0 -76 -62 -127 -126 -40 -50 -75
-112 -123 -214 -4 -8 -16 -47 -26 -85 -17 -64 -19 -111 -19 -580 0 -280 3
-528 8 -550 4 -22 9 -49 11 -60 2 -11 13 -46 25 -78 104 -292 390 -507 696
-523 44 -2 105 -4 135 -4 53 1 65 1 93 -1 6 0 53 0 104 1 50 1 96 -1 102 -4 5
-4 12 -2 15 3 3 5 21 5 41 1 19 -4 37 -4 40 0 3 4 20 5 37 1 18 -4 44 -6 58
-4 14 2 46 3 73 3 26 0 54 0 62 0 19 0 45 0 67 -1 16 0 42 -31 34 -40 -2 -2
-6 -44 -10 -94 -6 -101 -8 -110 -31 -180 -16 -48 -55 -135 -65 -145 -3 -3 -17
-23 -31 -45 -26 -41 -106 -123 -156 -161 -41 -31 -121 -74 -138 -74 -8 0 -15
-5 -15 -12 0 -6 -3 -8 -6 -5 -4 3 -14 2 -24 -3 -9 -5 -28 -11 -41 -14 -13 -3
-40 -9 -59 -14 -19 -5 -61 -8 -92 -8 -32 1 -58 -3 -58 -7 0 -4 -8 -3 -19 2
-10 6 -20 9 -22 7 -2 -2 -34 -6 -72 -10 -70 -6 -140 -29 -169 -54 -10 -8 -18
-11 -18 -7 0 4 -28 -21 -62 -57 -99 -101 -137 -234 -107 -369 28 -124 140
-249 259 -287 41 -13 126 -26 155 -23 66 6 155 5 155 -2 0 -5 5 -5 12 -1 7 4
24 9 38 10 101 11 146 19 244 44 61 15 125 34 141 41 17 7 32 13 35 14 50 17
154 68 158 78 2 4 9 7 16 7 16 0 175 106 230 152 73 61 185 177 228 235 24 32
46 59 51 61 4 2 7 9 7 15 0 6 6 18 14 26 41 47 125 220 168 346 48 145 83 365
80 505 -3 101 -1 214 3 220 3 5 1 11 -5 15 -6 4 -8 11 -5 16 8 12 9 195 1 208
-4 5 -2 12 4 16 6 4 8 11 4 16 -3 6 -5 40 -4 77 1 37 1 74 1 82 -1 8 0 38 0
65 1 28 1 62 0 78 0 26 -1 88 0 160 0 76 0 163 0 177 0 8 0 44 0 80 0 36 0 72
0 80 -1 8 0 38 0 65 1 28 1 62 0 78 -1 36 -1 121 0 155 2 41 -9 204 -15 232
-3 14 -8 34 -10 45 -19 85 -68 188 -131 275 -39 55 -152 170 -166 170 -4 0
-15 7 -23 16 -22 21 -152 88 -201 102 -96 28 -209 46 -265 43 -28 -2 -45 -1
-65 3 -11 2 -24 1 -29 -2 -12 -7 -112 -5 -125 2 -6 4 -11 3 -11 -3 0 -6 -11
-7 -27 -3 -16 4 -41 6 -58 5 -16 -2 -54 -3 -82 -3 -29 0 -61 0 -70 0 -10 0
-29 0 -43 1 -14 1 -35 1 -47 0 -13 0 -47 -1 -77 -2 -30 -1 -59 2 -65 5 -6 4
-11 2 -11 -5 0 -8 -3 -9 -13 0 -8 6 -16 9 -18 7z"/>
<path d="M4398 5205 c-3 -3 -32 -7 -65 -9 -60 -4 -189 -32 -208 -45 -5 -4 -29
-13 -52 -21 -24 -7 -43 -16 -43 -20 0 -4 -14 -13 -31 -20 -32 -14 -137 -94
-173 -133 -106 -115 -176 -246 -212 -402 -5 -20 -12 -143 -14 -220 0 -22 -1
-65 -1 -95 -1 -30 -1 -67 0 -82 0 -27 1 -89 0 -160 0 -77 0 -164 0 -178 2
-106 1 -142 -3 -148 -3 -5 -1 -14 3 -21 5 -7 5 -30 1 -51 -4 -22 -5 -42 -2
-45 3 -2 6 -22 8 -42 15 -198 138 -416 311 -550 23 -18 47 -33 52 -33 6 0 11
-3 11 -7 0 -8 127 -72 152 -77 7 -2 20 -6 28 -9 61 -23 180 -38 295 -36 44 0
86 0 93 0 6 -1 18 -1 25 -2 6 0 53 0 104 1 50 1 96 -1 102 -4 5 -4 12 -2 15 3
3 5 21 5 41 1 19 -4 37 -4 40 0 3 4 20 5 37 1 32 -7 92 -5 114 3 6 3 27 1 46
-3 19 -4 44 -4 56 0 12 5 24 4 27 -1 3 -5 12 -7 20 -4 12 5 39 -28 31 -37 -2
-2 -6 -48 -10 -102 -3 -54 -10 -107 -16 -117 -6 -11 -8 -20 -5 -20 3 0 -1 -15
-9 -34 -8 -19 -12 -37 -8 -40 3 -3 0 -6 -6 -6 -7 0 -12 -8 -12 -17 0 -28 -91
-163 -146 -217 -99 -98 -217 -162 -354 -192 -43 -9 -202 -19 -225 -14 -5 1
-12 2 -15 1 -3 -1 -25 -4 -50 -5 -153 -11 -303 -147 -339 -306 -16 -70 -7
-178 20 -240 13 -30 27 -56 31 -58 4 -2 8 -9 8 -15 0 -19 111 -117 155 -136
68 -30 78 -33 158 -37 43 -2 82 -6 87 -9 5 -3 11 -1 15 4 3 7 15 7 29 1 13 -5
26 -7 28 -5 2 3 33 7 69 10 108 9 162 16 172 22 5 3 24 7 43 9 19 1 40 6 47
11 6 4 20 9 31 10 45 7 179 59 271 104 224 112 427 291 570 504 124 186 220
436 243 635 9 80 10 1980 0 2035 -26 158 -111 319 -233 439 -37 36 -71 66 -75
66 -5 0 -15 6 -22 14 -25 24 -141 83 -208 104 -88 29 -110 32 -218 37 -51 3
-97 7 -102 10 -6 4 -10 2 -10 -4 0 -6 -11 -7 -27 -3 -16 4 -41 6 -58 5 -16 -2
-54 -3 -82 -3 -29 0 -61 0 -70 0 -10 0 -29 0 -43 1 -14 1 -35 1 -47 0 -13 0
-47 -1 -77 -2 -30 -1 -59 2 -65 5 -6 4 -11 3 -11 -3 0 -6 -11 -7 -27 -3 -16 4
-41 6 -58 5 -63 -6 -133 -5 -143 0 -5 4 -11 4 -14 2z"/>
</g>
</svg>
